Coordinates
version=1
nRows=14
nColumns=36
inDegrees=yes

Units are S.I. units (second, meters, Newtons, ...)
If the header above contains a line with 'inDegrees', this indicates whether rotational values are in degrees (yes) or radians (no).

endheader
time	pelvis_tilt	pelvis_list	pelvis_rotation	pelvis_tx	pelvis_ty	pelvis_tz	hip_flexion_r	hip_adduction_r	hip_rotation_r	knee_angle_r	knee_angle_r_beta	ankle_angle_r	subtalar_angle_r	mtp_angle_r	hip_flexion_l	hip_adduction_l	hip_rotation_l	knee_angle_l	knee_angle_l_beta	ankle_angle_l	subtalar_angle_l	mtp_angle_l	lumbar_extension	lumbar_bending	lumbar_rotation	arm_flex_r	arm_add_r	arm_rot_r	elbow_flex_r	pro_sup_r	arm_flex_l	arm_add_l	arm_rot_l	elbow_flex_l	pro_sup_l
      0.00000000	     -0.32973519	      1.90037281	     10.73103654	     -0.12549025	      1.29726612	     -0.08244090	     -3.17549851	     -3.57781840	      4.33569949	      7.48826118	      0.13069481	     13.18733850	     -9.62168405	     -6.00971251	      2.02438702	      1.71871933	      7.46797284	     12.69663007	      0.22159800	     11.99168719	     -9.97910176	     -6.00971251	     -6.88773144	     -4.23730263	     -3.89320784	     -1.50464940	     -6.41978183	     15.46600916	     23.34862725	     70.38005650	      1.20340149	    -10.71901595	     24.76306865	     23.59670382	     64.62473916
      0.01666670	     -2.07674645	      0.33168201	      9.59050996	     -0.12378905	      1.29146291	     -0.08233386	     -1.36607223	     -2.20805221	      6.15841767	      7.46174219	      0.13023197	     15.07176728	     -7.54322884	     -6.43928248	      4.38115205	      0.99848176	      8.58404712	     13.22795408	      0.23087135	     11.44669502	    -10.16056120	     -6.43928248	     -3.40950862	     -2.41319395	     -3.53377207	     -1.21859642	     -6.65430984	     14.98177222	     22.03100624	     73.48787578	     -0.89791921	     -9.28205563	     20.28170655	     23.84974592	     65.89445850
      0.03333330	     -3.11487452	     -0.07949764	      8.89503432	     -0.12345590	      1.28560426	     -0.08127317	     -0.24071078	     -2.06119493	      6.74918221	      7.71178392	      0.13459602	     16.32066036	     -7.78877981	     -6.49551135	      5.81045613	      0.97090048	      8.52338704	     13.89280907	      0.24247526	     12.20085175	     -9.92951520	     -6.49551135	     -1.98315143	     -2.24453756	     -3.14917480	     -1.37320431	     -6.25585935	     12.62504658	     22.22630025	     73.04760403	     -1.61203262	     -9.06366340	     18.57111685	     24.27291045	     66.10342299
      0.05000000	     -3.23936615	      0.03456508	      8.51371837	     -0.12412067	      1.28520336	     -0.08078313	      0.05755637	     -2.18352570	      6.95050561	      7.96316365	      0.13898342	     17.24853690	     -7.62997735	     -6.56481483	      5.75820015	      1.21997994	      9.00843069	     13.78138785	      0.24053059	     12.35060318	    -10.80142816	     -6.56481483	     -1.84331429	     -2.48837157	     -2.85400967	     -1.43972663	     -5.98631136	     11.51715060	     22.39267706	     72.37236190	     -1.87426092	     -9.04776934	     17.57548979	     24.63022637	     65.90396356
      0.06666670	     -3.68059803	      0.04943415	      8.15011775	     -0.12353270	      1.28213534	     -0.08007546	      0.67472288	     -2.21738260	      6.91307591	      8.24915555	      0.14397492	     18.01193704	     -7.28216191	     -6.99268150	      6.22760084	      1.33644914	      9.10182907	     13.95852518	      0.24362222	     13.00355456	    -11.04346340	     -6.99268150	     -1.29343558	     -2.55477212	     -2.58143620	     -1.94163965	     -5.36690727	      5.84731132	     23.08882412	     79.38189549	     -2.61273780	     -8.48547845	     12.21244087	     25.38336642	     73.27326709
      0.08333330	     -3.95244227	      0.15875444	      8.03243156	     -0.12414817	      1.28225032	     -0.07993699	      1.13191280	     -2.34280074	      6.74409413	      8.48713612	      0.14812847	     18.33529019	     -7.27866322	     -7.03383239	      6.37531777	      1.42379088	      9.19176004	     13.89335594	      0.24248481	     13.33255572	    -11.31326920	     -7.03383239	     -0.77487156	     -2.69260186	     -2.49716102	     -2.18590839	     -5.31619907	      5.64272928	     23.44829780	     78.15353620	     -2.99912399	     -8.40992679	     11.83489715	     25.48641446	     72.29561223
      0.10000000	     -4.35641825	      0.19727447	      7.83562999	     -0.12357428	      1.28356247	     -0.07941486	      1.67639576	     -2.41766390	      6.69432060	      8.65222559	      0.15100982	     18.58117637	     -7.13688549	     -7.06247414	      6.72128427	      1.44792858	      9.09702753	     13.85413369	      0.24180025	     13.91387643	    -11.01290258	     -7.06247414	     -0.04869645	     -2.73376380	     -2.32398817	     -2.59562070	     -5.38025842	      5.61675078	     24.24449747	     77.48957677	     -3.59469976	     -8.42989096	     11.74822540	     26.19875013	     71.80923170
      0.11666670	     -4.44750544	      0.35780601	      7.68330720	     -0.12413811	      1.28398475	     -0.07943118	      1.85768253	     -2.60521723	      6.55159694	      8.69925450	      0.15183063	     18.46737199	     -7.19713677	     -7.09059536	      6.57673024	      1.58560154	      9.13163818	     13.44754528	      0.23470394	     13.76444374	    -11.18817782	     -7.09059536	      0.25854444	     -2.88289175	     -2.35602364	     -2.43536787	     -5.28881221	      5.69212779	     23.82985401	     76.67945549	     -3.52200563	     -8.31560117	     11.37044611	     25.75698223	     71.15151702
      0.13333330	     -4.45835992	      0.35993142	      7.50121443	     -0.12898638	      1.28184468	     -0.07643063	      2.06867195	     -2.58194170	      6.50761577	      8.67791589	      0.15145820	     18.56608764	     -7.24304198	     -7.09141994	      6.66072032	      1.54519555	      9.10955514	     13.41644825	      0.23416120	     13.94346566	    -11.26079695	     -7.09141994	      0.28205582	     -2.87535151	     -2.38026115	     -2.25454120	     -5.29383478	      5.71010292	     23.88589549	     76.68645820	     -3.31307984	     -8.37151699	     11.34416025	     25.80954607	     71.15391874
      0.15000000	     -5.10892867	      0.33718867	      7.40568547	     -0.12948796	      1.28190368	     -0.07645897	      3.16691372	     -2.58207828	      6.66976640	      9.12544314	      0.15926903	     18.76103420	     -7.41610315	     -7.15819609	      7.66087995	      1.58889213	      8.95514150	     13.77147444	      0.24035757	     14.20273546	    -11.39428899	     -7.15819609	      1.00852397	     -2.99434608	     -2.46097126	     -1.81687536	     -5.48089360	      8.14816873	     23.30918111	     76.97985113	     -3.27127049	     -8.35912881	     11.26189175	     25.35492376	     71.45179799
      0.16666670	     -5.13979561	      0.37552756	      7.41207574	     -0.12312243	      1.28158746	     -0.07377733	      3.13247749	     -2.56376703	      6.66249286	      9.13611705	      0.15945532	     18.75960239	     -7.41856400	     -7.15821743	      7.65351542	      1.55873393	      8.95899702	     13.78079298	      0.24052021	     14.20356546	    -11.39590989	     -7.15821743	      1.00629203	     -2.99464984	     -2.45898005	     -1.81057108	     -5.48528849	      8.14769730	     23.31076705	     76.98014967	     -3.27047999	     -8.35932251	     11.26166894	     25.35481103	     71.45229939
      0.18333330	     -5.38927455	      0.36711077	      7.37103725	     -0.11810340	      1.28174981	     -0.07653666	      3.17346819	     -2.54907690	      6.59834539	      9.11605221	      0.15910513	     18.57064454	     -7.77040503	     -7.16921934	      7.82312879	      1.50610451	      8.78895829	     13.92753160	      0.24308128	     14.53397964	    -11.13230790	     -7.16921934	      1.78303738	     -3.17008577	     -2.51716414	     -2.26656000	     -5.44435199	      8.40673632	     23.52471885	     77.21386763	     -3.81500823	     -8.55574091	     11.21753112	     25.58014025	     71.77011468
      0.20000000	     -5.37538971	      0.41287741	      7.32219526	     -0.12369501	      1.28181145	     -0.07888673	      3.13100070	     -2.64333523	      6.51495911	      9.17121079	      0.16006782	     18.54091670	     -7.81264941	     -7.16974734	      7.73719546	      1.57531049	      8.78970727	     13.94393118	      0.24336751	     14.53118050	    -11.12524355	     -7.16974734	      1.94964675	     -3.13847609	     -2.55833360	     -2.27926614	     -5.54310016	      8.40521299	     23.52585170	     77.22250062	     -3.81217968	     -8.53508113	     11.22040268	     25.58935995	     71.78652496
      0.21666670	     -5.33678187	      0.46403474	      7.34912311	     -0.11848895	      1.28434947	     -0.07647644	      3.06365637	     -2.69784618	      6.60575436	      9.09088251	      0.15866583	     18.47527650	     -7.76425161	     -7.17027765	      7.58060150	      1.58836910	      8.77607087	     13.95641828	      0.24358545	     14.47360989	    -11.13983336	     -7.17027765	      2.15279623	     -3.19133248	     -2.69056765	     -2.52343247	     -5.51775531	      8.42253699	     23.49365429	     77.23272065	     -3.93074554	     -8.56407636	     11.22790348	     25.55171847	     71.80461270
